# xmcd
#
# Track frame offsets: 
#        150
#        21855
#        45028
#        69357
#        95530
#        112454
#        138228
#        162601
#        177335
#        207391
#        230759
#        249553
#        276080
#
# Disc length: 3976 seconds
#
# Revision: 0
# Processed by: cddbd v1.5.2PL0 Copyright (c) Steve Scherf et al.
# Submitted via: ExactAudioCopy v1.0b3
#
DISCID=bc0f860d
DTITLE=Thanh Thuy, VA - Nhung Tinh Khuc Hoang Thi Tho
DYEAR=1900
DGENRE=
TTITLE0=Thanh Thuy - Danh quen sao
TTITLE1=Huong Lan - Pho chieu
TTITLE2=Jeannie Mai - Con tin va nuoc mat
TTITLE3=Thanh Tuyen - Mau hoa thien ly
TTITLE4=Paolo - Toi yeu Thuy
TTITLE5=Giao Linh - Biet dau tim
TTITLE6=Duy Quang - Mot lan cuoi
TTITLE7=Thuy Nga - Mua thu Dong Kinh
TTITLE8=Thanh Thuy - Ta tinh
TTITLE9=Connie Kim - Toi va nguoi toi yeu
TTITLE10=Truong Thanh - Xe hoa mot chiec
TTITLE11=Thao Ly - Bai tho cuoi cung
TTITLE12=Thanh Thuy - Tinh dem lien hoan
EXTD=
EXTT0=
EXTT1=
EXTT2=
EXTT3=
EXTT4=
EXTT5=
EXTT6=
EXTT7=
EXTT8=
EXTT9=
EXTT10=
EXTT11=
EXTT12=
PLAYORDER=
